<svg xmlns="http://www.w3.org/2000/svg" width="5000" height="3000" viewBox="0 0 5000 3000"><defs><style>.a{fill:#141414;}.a,.r,.t{stroke:#000;}.b{fill:#334237;}.c{fill:#5b7561;}.aa,.d,.e,.f,.g,.h,.i,.j,.k,.l,.m,.o,.p,.q,.r,.s,.v,.w,.x,.y,.z{fill:none;}.d,.e,.f,.g,.h,.i,.j,.k,.l,.m{stroke:#6c8c74;stroke-width:9px;}.aa,.d,.e,.f,.g,.h,.i,.j,.k,.l,.m,.s,.z{stroke-miterlimit:10;}.e{stroke-dasharray:12.18 12.18;}.f{stroke-dasharray:12.25 12.25;}.g{stroke-dasharray:12.09 12.09;}.h{stroke-dasharray:12.22 12.22;}.i{stroke-dasharray:11.81 11.81;}.j{stroke-dasharray:12.76 12.76;}.k{stroke-dasharray:11.84 11.84;}.l{stroke-dasharray:11.76 11.76;}.m{stroke-dasharray:11.79 11.79;}.n{fill:#add8e6;}.p{stroke:#f0f;}.p,.q,.r,.t,.v{stroke-width:3px;}.q{stroke:blue;}.s{stroke:#ff1fdc;stroke-width:10px;}.t{fill:red;}.u{fill:#325763;}.v,.w,.x{stroke:#2d2d2d;}.w,.x{stroke-width:18px;}.x{stroke-linecap:round;stroke-linejoin:round;}.aa,.y,.z{stroke:#424242;}.y,.z{stroke-width:19px;}.aa,.ab{stroke-width:2px;}.ab{fill:#97282c;stroke:#631719;}.ac,.cj,.cl{font-size:16.87px;font-family:AcuminPro-Regular, Acumin Pro;}.ac{fill:#fff;}.ad{letter-spacing:0em;}.ae{letter-spacing:0.01em;}.af{letter-spacing:0em;}.ag{letter-spacing:-0.01em;}.ah{letter-spacing:0em;}.ai{letter-spacing:0.03em;}.aj{letter-spacing:0em;}.ak{letter-spacing:-0.01em;}.al{letter-spacing:-0.02em;}.am{letter-spacing:-0.05em;}.an{letter-spacing:0em;}.ao{letter-spacing:0.01em;}.ap{letter-spacing:-0.01em;}.aq{letter-spacing:0.01em;}.ar{letter-spacing:0em;}.as{letter-spacing:0em;}.at{letter-spacing:-0.01em;}.au{letter-spacing:-0.01em;}.av{letter-spacing:-0.01em;}.aw{letter-spacing:-0.07em;}.ax{letter-spacing:0.01em;}.ay{letter-spacing:0.01em;}.az{letter-spacing:-0.04em;}.ba{letter-spacing:-0.06em;}.bb{letter-spacing:-0.01em;}.bc{letter-spacing:0em;}.bd{letter-spacing:-0.06em;}.be{letter-spacing:-0.01em;}.bf{letter-spacing:-0.06em;}.bg{letter-spacing:-0.01em;}.bh{letter-spacing:-0.01em;}.bi{letter-spacing:-0.01em;}.bj{letter-spacing:0.01em;}.bk{letter-spacing:-0.02em;}.bl{letter-spacing:-0.01em;}.bm{letter-spacing:-0.1em;}.bn{letter-spacing:-0.08em;}.bo{letter-spacing:-0.02em;}.bp{letter-spacing:-0.01em;}.bq{letter-spacing:0.02em;}.br{letter-spacing:0.03em;}.bs{letter-spacing:0em;}.bt{letter-spacing:-0.01em;}.bu{letter-spacing:0.02em;}.bv{letter-spacing:0.02em;}.bw{letter-spacing:-0.01em;}.bx{letter-spacing:0.01em;}.by{letter-spacing:-0.01em;}.bz{letter-spacing:0.02em;}.ca{letter-spacing:-0.04em;}.cb{letter-spacing:0em;}.cc{letter-spacing:0.02em;}.cd{letter-spacing:-0.04em;}.ce{letter-spacing:-0.02em;}.cf{letter-spacing:0.01em;}.cg{letter-spacing:0.02em;}.ch{letter-spacing:-0.02em;}.ci{letter-spacing:-0.01em;}.cj{fill:#99d5e8;}.ck{letter-spacing:-0.03em;}.cl{fill:#b1e3bd;}.cm{letter-spacing:0em;}.cn{letter-spacing:-0.01em;}.co{letter-spacing:0.01em;}.cp{letter-spacing:0.01em;}.cq{letter-spacing:-0.03em;}.cr{letter-spacing:-0.02em;}.cs{letter-spacing:-0.02em;}.ct{letter-spacing:0em;}</style></defs><rect class="a" x="4" y="4.63" width="4996" height="2995.38"/><path class="b" d="M3323,217.63l-19,132-809.5,53.46-66,51.54,2,398.65L2419,936.63l-71-5-43-138-77,6.5v439.5l-42,10-6.5,116,77.5,163,156,93s191,24,208.5,36,98.5,178,98.5,178,33.93-22.37,53-12,118-109,118-109l304.27-113,108.73-171,529-52,89.85-234-145.51-343L3519.49,755.5l-64.37-79.87L3440.83,203Z"/><rect class="c" x="2401" y="2570.63" width="55" height="42"/><rect class="c" x="2316" y="2582.62" width="47" height="30" transform="translate(-320.04 328.75) rotate(-7.53)"/><path class="c" d="M509.8,866.36l11.82,14.5a20.79,20.79,0,0,0,16.12,7.66H728.18a20.79,20.79,0,0,0,19.62-13.88c10.13-28.75,31.65-95.67,29-138.46-2.76-45.1-46.52-90.95-63.07-106.77a20.83,20.83,0,0,0-14.38-5.77H541.6a20.75,20.75,0,0,0-7.15,1.26c-8.59,3.17-29.32,12-29.32,23.23V853.22A20.81,20.81,0,0,0,509.8,866.36Z"/><path class="c" d="M490.43,506.19l16-23.09a20.82,20.82,0,0,1,18.21-8.9l171.68,9.28A20.81,20.81,0,0,1,716,505.75l-6,83.16a20.81,20.81,0,0,1-20.21,19.3l-185,4.83a20.8,20.8,0,0,1-21.33-21.73l3.34-74.18A20.84,20.84,0,0,1,490.43,506.19Z"/><path class="c" d="M920.23,365.85l79.12,86a20.69,20.69,0,0,1,4,6.32l9.16,22.74a20.84,20.84,0,0,1,1.5,7.76v3a20.83,20.83,0,0,1-6.8,15.39L838.71,660.49a20.81,20.81,0,0,1-29.68-1.7l-83.58-95.73a20.79,20.79,0,0,1,.72-28.14L890,365.48A20.81,20.81,0,0,1,920.23,365.85Z"/><path class="c" d="M1036.64,600.9H1143.2a20.8,20.8,0,0,1,20.8,20.8V832.47a20.81,20.81,0,0,1-20.8,20.81H1035a20.8,20.8,0,0,1-20.8-21l1.67-210.77A20.8,20.8,0,0,1,1036.64,600.9Z"/><path class="c" d="M1227.45,624.44,1225,876.59A20.65,20.65,0,0,0,1226,883c4.24,13.51,23.24,63.07,73,60.65,49.94-2.44,66-48.72,69.38-61a20.58,20.58,0,0,0,.75-5.52V638.24a20.53,20.53,0,0,0-1.11-6.68c-4.22-12.31-21.59-52.26-69-52.26-43.12,0-62.2,23.85-68.72,34.87A20.57,20.57,0,0,0,1227.45,624.44Z"/><rect class="c" x="1222" y="403.09" width="180" height="115.96" rx="20.8"/><path class="c" d="M1406.76,995.22l160.56-11.1a20.81,20.81,0,0,1,22.23,20.23l.94,37.28a20.8,20.8,0,0,1-19.45,21.29l-159.87,10.34a20.8,20.8,0,0,1-22.12-19.83l-1.64-36.52A20.81,20.81,0,0,1,1406.76,995.22Z"/><rect class="c" x="2266.5" y="1639.63" width="230" height="167.5" rx="20.8" transform="translate(134.34 -171.84) rotate(4.25)"/><polygon class="c" points="4721 1116.63 4256 1128.13 3922.85 1144.63 3833 1378.63 3304 1430.63 3195.27 1601.63 2891 1714.63 2881 1847.63 3883.44 1859.63 3889.51 2213.63 4194 2223.63 4328 2323.63 4810.69 2315.63 4754 1115.13 4721 1116.63"/><line class="d" x1="4104.84" y1="1135.61" x2="4107.71" y2="1130.34"/><polyline class="e" points="4113.53 1119.63 4157.8 1038.2 4203.27 901.78 4225 768.39 4216.92 701.7 4174.47 668.35 4069.88 647.13 3975.11 611.93"/><polyline class="d" points="3969.4 609.81 3963.78 607.72 3963.78 601.72"/><polyline class="f" points="3963.78 589.47 3963.78 521.63 3973.48 474.08"/><polyline class="d" points="3974.71 468.08 3975.91 462.2 3981.75 460.85"/><path class="g" d="M3993.53,458.12l87-20.17,65.18,10.61s75.29,9.1,79.33,12.13S4330.6,438,4330.6,438l68.21-30.31h121.26L4576.71,424"/><polyline class="d" points="4582.52 425.68 4588.28 427.34 4588.28 433.34"/><polyline class="h" points="4588.28 445.56 4588.28 530.41 4550.39 601.66 4512.49 657.74 4504.92 741.11 4521.59 838.12 4556.45 903.3 4614 974.23"/><polyline class="d" points="4617.85 978.98 4621.63 983.63 4620.48 989.52"/><line class="i" x1="4618.21" y1="1001.11" x2="4610.28" y2="1041.68"/><polyline class="d" points="4609.14 1047.47 4607.99 1053.36 4601.99 1053.36"/><polyline class="j" points="4589.23 1053.36 4544.33 1053.36 4473.9 1024.07"/><polyline class="d" points="4468.01 1021.62 4462.47 1019.31 4461.89 1013.34"/><polyline class="k" points="4460.74 1001.56 4453.38 926.04 4460.96 827.51 4441.25 731.63 4441.25 678.75"/><polyline class="d" points="4441.25 672.84 4441.25 666.84 4436.92 662.68"/><polyline class="l" points="4428.44 654.54 4365.46 594.08 4251.78 495.55 4236.8 493.86"/><polyline class="d" points="4230.96 493.19 4225 492.52 4222.38 497.92"/><polyline class="m" points="4217.22 508.52 4210.85 521.63 4225 597.11 4274.52 666.84 4324.54 731.63 4319.99 771.62 4292.7 854.79 4266.94 947.26 4303.47 1115.26"/><line class="d" x1="4304.73" y1="1121.03" x2="4306" y2="1126.89"/><path class="n" d="M2305,1408.63l-12,4-25-3,3-59,14-11,20-1Z"/><path class="o" d="M1533,1996.63l24-1,4,88,10-1v5l35-1v3l22-1,2,37-58,3v4l-38,2,2,50-32,2-2-51-49,2v8l-43,2-3-77h20l-3-67h15v-17l93-4Z"/><path class="o" d="M1795,2425.63v32l-33,10v10h3l1,25h-14v25l8,1v41h-32l-1,18-31,10-44-14v-22l-19,1,9,19-20,11-3-5-19,12-6-6-9,4,4,15-43,26-24-36,73-42h-38l-5-15,5-14,50-4v-18l-29-16,28-57,8,4,9-19,95,55,3-5-13-22-1-34,72-20m-150,115v19h30l36-8,15,4,1-15-63-35Z"/><path class="p" d="M2305,2183.63l-34-115"/><path class="p" d="M2285,2267.63l-56-182"/><path class="p" d="M2305,2058.63l-34,10-72,30-8,6,2,15,45,139,9,11,25,2,33-9"/><path class="p" d="M1920,1655.63l181-15,22-15,29-30,14-31"/><path class="p" d="M1895,1587.63l-57-54-67-49-56-34-45-45-40-87-54-48-4-3-63-20-47-6"/><path class="p" d="M2101,1640.63l29,25,18,24,8,27"/><path class="p" d="M2305,2289.63l-3,1-74,11-33-23-29-30-22-59-19-112-11-92,7-117,51-224-6-80-18-94-8-32-3-29-10-22-14-112"/><path class="p" d="M892,1264.63l-15-249v-51l-8-17-24-33-5-10-8-19-9-44,1-43,5-38,11-39,32-41,138-131,162-150,90-52,46-15,162-1,118,29,100,47,104,98,57,100,30,103-8,191,12,162,23,147,11,125,6,109-5,61-23,84,25,68,22,149,8,165-14,77-16,50-20,44-39,30-87,53-75,26-67,29-62,12-42,1-73-7-65,2-66,7-60,12-88,31-26,7-31,15-31-8-33-39-19-31-8-49-16-313,2-85,21-75,43-67,30-62,5-24v-107l-30-24-31-4-42,1-42-3-34-13-26-28-6-20-6-60-4-83"/><path class="p" d="M2285,2343.63l20,74"/><path class="p" d="M2305,2445.63l-40,11-37-155"/><path class="p" d="M2176,1941.63l15,14,40,9"/><path class="q" d="M-1919,2768.63l428,5,1826,32,354,4,140,4,186,2,187-2,347,3,35-1"/><path class="q" d="M1584,2815.63l413-2"/><path class="q" d="M1887,41.63l57,907,31,452,12,224"/><path class="q" d="M2049,2466.63l-1-67,8-256,5-260-8-218"/><path class="q" d="M1989,1667.63l8,145,1,166-19,372,3,93"/><path class="q" d="M2063,2811.63l-13-216-1-129"/><path class="q" d="M1982,2443.63l8,232,7,138"/><path class="q" d="M1997,2813.63l66-2"/><path class="q" d="M2051,1622.63l-24-316-81-1265"/><path class="q" d="M2063,2811.63h242"/><path class="q" d="M2078,3134.63l-5-86-10-237"/><path class="q" d="M1933-665.38l-40,365-9,159,3,183"/><path class="q" d="M1946,41.63l-2-237,13-176,32-294"/><path class="q" d="M1997,2813.63l17,223,25,522"/><path class="q" d="M1987,1624.63l2,43"/><path class="q" d="M2053,1665.63l-2-43"/><path class="r" d="M2159-83.38l8-7,31,32-64,63-29-28,6-8-48-43,23-21-5-9,28-27Z"/><path class="r" d="M2305,2558.63l-9-29,9-3Z"/><path class="r" d="M2305,2696.63l-32,1-1-51h33Z"/><path class="r" d="M2301,2765.63l-51,1-1-37,52-1Z"/><path class="r" d="M1499,2927.63l-14,75-32-9,15-72Z"/><path class="o" d="M2369,2269.63l-67,21-74,11-33-23-29-30-22-59-19-112-11-92,7-117,51-224-6-80-18-94-8-32-3-29-10-22-14-112"/><path class="s" d="M2101,1640.63l29,25,18,24,8,27"/><path class="o" d="M-238,1289.63l504,4,95-3,198-10,203-8,99-6"/><path class="o" d="M209,31.63l19,453,16,228,22,581"/><path class="o" d="M2175,2029.63l-70,23-201,8"/><circle class="t" cx="1731" cy="2516.63" r="5"/><circle class="t" cx="1731" cy="2516.63" r="5"/><circle class="t" cx="1489" cy="2084.63" r="5"/><circle class="t" cx="1749" cy="1223.63" r="5"/><circle class="t" cx="1322" cy="2228.63" r="5"/><path class="u" d="M1552,2384.63l6,26-1,44-7,30-12,24-26,29-32,13-8,13-1,17,10,21,17,19,23,47,9,11,11,5,5,9,8,28-12,26-11,11-13,8-23,6-19-5-18-21-23-53-13-85,18-26,2-10-3-10,1-21,25-17,13-18,11-68,18-22,30-8,1-26,9-3m-55,98-4,3-5,23-17,27-2,13,5,2,10-1,11-8,16-20,7-13,2-10-2-9-9-9Z"/><path class="u" d="M752,124.63l30,65,3,138,20,34,24-8,50-55,18-4,7-69,62-29,69-53,39-27,21,6v51l-36,180-25,24-21,38-106-92-61,54-43,18-29,24-34,35-149-5-83-90-21-27,29-66,124-109,25-44Z"/><path class="u" d="M2735,1651.63l-5,37,3,30,12,24-2,12,12,27v21l16,1,12-17,8-16-9-16-4-22-12-16-6-35,12-14h16l17,10,5,18,13,17,1,21,6,28-3,23-10,10-10,6-20,4-4,8-10,11-21,7-32,5-38-6-95-79-6-36,9-10,49-35,34-12,9-14,6-17,43-3Z"/><path class="u" d="M2562,1428.63l9,31,3,35-7,23-33,4-68-5-47-41,9-25,45-28,45-22Z"/><path class="u" d="M2933,1692.63l-22,15-20,7-28-8,6-10,16-5,39-4Z"/><path class="u" d="M2492,463.63l23,27,11,40-12,25,4,19,14,15,113,5,35,20,9,32-11,38-15,27,4,27,7,18,9,38-29,68-44,31-26-4-75-79-26-18-14,5-19-7-9-30,15,7,10,12,28,5,14-16-1-15,3-15,12-32-18-40-5-30-16-38-20-18-48-31-5-19,29-60,26-13Z"/><path class="u" d="M2377,1337.63v12l-4,8-13,10-22,5-14,15-11,18-20,7-25-3,3-59,14-11,63-2,19-6Z"/><path class="p" d="M2177,1220.63l17-12-7-227h-10"/><path class="p" d="M2848,1895.63l2,113-5,79-27,37-41,21-128,38-347,107-74,11-33-23-18-18"/><path class="v" d="M1201,1816.63l-3,119-15,5"/><path class="v" d="M2076,1657.63l-104,4"/><path class="v" d="M1485,1899.63l32,34,26,14,5-7-4-18"/><path class="v" d="M1178,1904.63l6,5,17-1,36-21,11-17,30,19,33,26,6,14-1,68-9,8-10,15-12,30-1,41,5,18-20,29,31,24-30,42-29,7-11-7h-45l-1-53"/><path class="v" d="M1621,1563.63l-75-40"/><path class="v" d="M1754,1346.63l-16-19-50-50-59-46"/><path class="v" d="M1758,1303.63l40-23,11-14,5-18-2-10-8-6"/><path class="v" d="M1693,1215.63l-23-3-37-1"/><path class="v" d="M1670,1212.63l-8-46-6-19"/><path class="v" d="M1700,1076.63l49,3,41,10-33,38-27,19-17,9-45,44"/><path class="v" d="M1456,1271.63l4,15,6,4,9,1"/><path class="v" d="M1277,1378.63l13-31,7-12"/><path class="v" d="M1490,1645.63l89-3,60,4,32,38"/><path class="v" d="M1713,957.63l43,1,44,4,37-2"/><path class="v" d="M1595,888.63l8,13h21l15-5,29-2,24,2,28,6,21,9,21,15,23,19,15,17"/><path class="v" d="M1591,945.63l8-10,8-24,1-10"/><path class="v" d="M1867,1475.63l-31,13-15-3-76-45-32-25-35-47-11-32-14-20-18-23-26-25-18-15"/><path class="v" d="M1629,1231.63l-40-22"/><path class="v" d="M1565,1293.63l3,8,31,10,21,27,7,18,4,22v15l10,17,23,27,41,29,26,14,17,16,14,20"/><path class="v" d="M1720,902.63l-5-16-16-30"/><path class="v" d="M1670,895.63l11-20,18-19,4-15,8-155"/><path class="v" d="M1427,1700.63l19-19,28-24,30-22,15-31,5-16-2-85-4-50-2-51,1-13,59-119,24-29,29-10,14-64,11-15,6-23,2-23-9-21-21-13-14-6-4-5,7-6,2-14-6-13-11-48-15-35-9-17-3-21-3-7"/><path class="v" d="M2305,2042.63l-1,1-68,24-51,20-21-54"/><path class="v" d="M2305,1495.63l-39-1-11-14-26-15-9-36-8-24-13-13-20-4-32-2,30,136,6,35,3,34-73,60-10,12"/><path class="v" d="M1543,1947.63v20l9,13,11,6,17,25,13,13,45,25,22,18,24,10"/><path class="v" d="M1548,1940.63h11l13-4"/><path class="v" d="M1056,1883.63l18-13,45-28,23-6,17-2,13,25"/><path class="v" d="M1290,1347.63l-6-24-7-12-25-7-25,5-2-9"/><path class="v" d="M1321,1308.63l-22,5-22-2"/><path class="v" d="M1427,1700.63l-80-69-36-46-28-50-19-26-8-3-27-1-22,12-9,3-18,1-9,17-11,16-24-3"/><path class="v" d="M1515,2561.63l-9-4-7,2-11-6"/><path class="v" d="M1478,2520.63l-2,8,1,3"/><path class="v" d="M1450,1517.63l72-14"/><path class="v" d="M1427,1540.63l38,4,22,4,36,3"/><path class="v" d="M1050,2180.63l134,2"/><path class="v" d="M1684,2077.63l41,6,42,1,73-14,37-11"/><path class="v" d="M1587,938.63l-46-11-18-33-6-42-40-69"/><path class="v" d="M1184,1909.63l-4,14"/><path class="v" d="M1300,2162.63l20,1,42,21,73-27"/><path class="v" d="M1355,1767.63l1,31"/><path class="v" d="M1614,1921.63l41-6"/><path class="v" d="M1948,2628.63l21,150"/><path class="v" d="M1584,2036.63l1-20"/><path class="v" d="M1575,2003.63l-16,27,28,7,18,27,31,26v38"/><path class="v" d="M1495,2188.63l-3-24-13-9-44,2"/><path class="v" d="M1593,2266.63l-13-29-23-37-4-11-3-56"/><path class="v" d="M1316,1997.63l1,11"/><path class="v" d="M1493,1418.63l24-23"/><path class="v" d="M1493,1418.63l25,30"/><path class="v" d="M1300,2016.63l10-1"/><path class="v" d="M1150,1667.63l92,44"/><path class="v" d="M1213,1305.63l29,100"/><path class="v" d="M1069,1606.63l39,23,24,8"/><path class="v" d="M1216,2018.63l-10,47-16,14"/><path class="v" d="M1197,1315.63l25,93-16,14"/><path class="v" d="M1315,1914.63l41-116-32-13"/><path class="v" d="M1281,1810.63l74-43"/><path class="v" d="M2268,2728.63l1-17"/><path class="v" d="M1972,1661.63l-34,3-14,16-9,18-25,12-13,12-16,21-18,13"/><path class="v" d="M1290,1847.63l-11-48"/><path class="v" d="M1639,2254.63l-19,68,19,81-2,26"/><path class="v" d="M1593,2266.63l27,56-22,74-39,99-17,31-13,18-11,11-11,24v16l12,20,11,13,21,19,32,19,12,9-21,117"/><path class="v" d="M1395,1732.63l-40,35-44-20-1-28,57-16,60-3"/><path class="v" d="M2305,2457.63l-66,20"/><path class="v" d="M1655,1090.63l32-14"/><path class="v" d="M1300,2162.63l7-32-18-21"/><path class="v" d="M1132,1637.63l18,30,39,57"/><path class="v" d="M1190,2019.63l110-3"/><path class="v" d="M1028,1882.63l28,1,14,9,49,19,12,2,11-4,8-9,22-41,10-8,9-2,22,5,35,16,42-23,77-57,91-5-31-85"/><path class="v" d="M1116,1478.63l23-13,24-32,17-10,26-1,20,15,7,8"/><path class="v" d="M1011,1439.63l13-18"/><path class="v" d="M1012,1403.63l-3,81-25,43-1,30,4,10,16,16,19,11"/><path class="v" d="M1189,1111.63l-7-1-8-20-29,20-24,6-17-2-10-8-7-10-4-29v-110l6-10"/><path class="v" d="M1614,1061.63l-35,13-70,11-46-1-32-4-52,5-10-16-25-64-138-72-15-14-13-34-2-18-2-74"/><path class="v" d="M1787,1528.63l26,10,41,40"/><path class="v" d="M998,1502.63l41-7,30,7,23,22,44,27"/><path class="v" d="M1873,2033.63l7,3h22l2,24"/><path class="v" d="M1257,2017.63l28,33"/><path class="v" d="M1316,1827.63l-1,98"/><path class="v" d="M1145,1906.63l11,4h17l5-6-1-37-5-8"/><path class="v" d="M1717,1612.63l40-38,21-28,9-18-25-12-11,1-14,6-12,2-12-2-8-6"/><path class="v" d="M2147,1386.63l-8-41"/><path class="v" d="M1575,1688.63l2-16-46-32-9-45"/><path class="v" d="M1723,1423.63l44-31"/><path class="v" d="M1311,1585.63l-16,5-20,14"/><path class="v" d="M1583,1543.63l5-28,9-27,15-29,23-25,10-10,47-36,55-36,7-6,6,7"/><path class="v" d="M2185,2087.63l-16,8-22,8h-43"/><path class="v" d="M2305,2315.63l-16,9-20,4-85-6"/><path class="v" d="M1160,1554.63l42,9"/><path class="v" d="M1423,1544.63l19-16,13-18,6-31,1-13,8-16,23-32-24-11"/><path class="v" d="M1812,1238.63l23-27,22-12,15-16"/><path class="v" d="M2105,2052.63l1,32-3,26,36,114,57,124,25,60,13,52,18,60,52,94h1m0,91-10,5-26,1-32,4"/><path class="v" d="M2239,2066.63l-6-18"/><path class="v" d="M2235,2773.63l30,1,4-1,2-7"/><path class="v" d="M861,1266.63l31-2"/><path class="v" d="M1873,2033.63l2,19,9,29,2,12-14,26-34,44-20,19-32,18-47,14-113,44-52,12-44,2-43-6-26-1-45,3-48,1-57,16-143,28-19,6-38,2-22-6-31-39-9-23-3-23,6-62-12-178-13-116,2-48,13-47,16-28,55-74,25-51,5-65-7-10-1-25-10-35-16-25-25-15-20-4-31-13-21-31-3-23-4-75-1-138-31-7-37-3-26-14-7-18,11-89-6-35-12-53-22-37-24-29-7-17-3-38v-55l12-35,28-43,62-60,43-38,60-61,26-21,24-25,24-20,50-51,32-25,49-26,40-11,46-8,89-3,41,2,94,22,30,9,31,16,52,35,76,60,23,25,78,141,14,45-5,26-18,21-1,149-5,132,16,97,9,39,14,22-1,16,19,87-5,34-15,29-4,27,4,52-6,55,5,43-17,49,23,38,11,31,10,14,2,39,14,64,11,61,6,112-7,34-6,15-12,17-17,8-10,8-6,14"/><path class="v" d="M886,931.63l-23,7-28,4-43,1-55-12-14-4-21-10-28-3-20-8-36-9-69-3"/><path class="v" d="M737,931.63l8-25,24-44,27-194"/><path class="v" d="M2139,2224.63l-17-120-10-86-3-74,4-62,31-156-7-28-16-24-26-15-19-2"/><path class="v" d="M1563,1986.63l12-39-3-11,33-9,9-6"/><path class="v" d="M1639,2403.63l69,37"/><path class="v" d="M1427,1700.63l-32,32"/><path class="v" d="M1083,1896.63l7-36"/><path class="v" d="M1346,1393.63l-29-8-24-9-16,2-13,6-12,8-10,13-4,6-5,34,3,22,8,17,20,25"/><path class="v" d="M1591,1253.63l-50-22-50-9-29-10-25,13-19,3"/><path class="v" d="M1744,2213.63l-56-32-16-16-19-87,12-9"/><path class="v" d="M1463,2184.63l32,4,1,6,57-5,55,5"/><path class="v" d="M1264,2139.63l51-10"/><path class="v" d="M1222,1408.63l20-3"/><path class="v" d="M1330,998.63l43-14,123-9,43-51"/><path class="v" d="M1402,1278.63l54-7h46l33,7,19,12,11,3"/><path class="v" d="M1462,1466.63l60,37"/><path class="v" d="M1418,1437.63l18-32"/><path class="v" d="M1747,1338.63l14-44v-16"/><path class="v" d="M1577,1672.63l-5-84-26-65-24-20"/><path class="v" d="M1310,1719.63l-3-53-6-43-6-33-16-60"/><path class="v" d="M1275,1604.63l4,9,13,9,55,9"/><path class="v" d="M1316,1827.63v-37l-5-43"/><path class="v" d="M1131,1913.63l8,10"/><path class="v" d="M1311,1915.63l-21-68"/><path class="v" d="M1415,1979.63l21-9,19-18,19-27,11-26-5-67-5-42-17-5"/><path class="v" d="M1317,1929.63l14,7,19,3,24,9,41,31,9,24"/><path class="v" d="M1482,1864.63l14-17,26-45,2-9"/><path class="v" d="M1488,2553.63l-11-22"/><path class="v" d="M1478,2520.63l-14-11"/><path class="v" d="M2239,2066.63l-6-18"/><path class="v" d="M2326,2692.63l14,3,22,2,9,5,8,2,18,1"/><path class="v" d="M2340,2695.63v17"/><path class="v" d="M2677,2756.63l3,6,18,4h10l6-6,1-8"/><path class="v" d="M2680,2695.63h32l2,18"/><path class="v" d="M2465,2624.63l93-10,44-2,30,3,15,6"/><path class="v" d="M2464,2564.63l-4-10-11-12-61-1"/><path class="v" d="M2576,2398.63l-29-18-22-16,20-14"/><path class="v" d="M4100,1683.63v23l-22,25-141,1"/><path class="v" d="M2641,1982.63l174-54,49-5"/><path class="v" d="M2519,2016.63l122-34-2-15"/><path class="v" d="M2327,2038.63l-6-24"/><path class="v" d="M2519,2016.63l-106,8-61,8-48,11-68,24-51,20-8-20"/><path class="v" d="M2537,1555.63l54-4,17-7,10-16,1-22-11-8-9-9-21-13-4-5"/><path class="v" d="M2535,1602.63l-66-3-20-11-9-11,1-18-9-18-33-4-16-9-48-18-29-15-40-1-11-14-26-15-9-36-8-24-13-13-20-4h-2m0,134,6,35,3,34-9,7"/><path class="v" d="M2321,2673.63l-10-1"/><path class="v" d="M2357,2697.63v-22"/><path class="v" d="M2235,2773.63l30,1,4-1,2-7"/><path class="v" d="M2177,2306.63l19,42,25,60,13,52,18,60,52,94,14,6,3,53,5,19-14,11-17,7-26,1-32,4"/><path class="v" d="M2521,2618.63l-53-39"/><path class="v" d="M2536,2460.63l57-14-17-48,11-16"/><path class="v" d="M2371,2465.63l-52-12"/><path class="v" d="M2525,2364.63l-67,11"/><path class="v" d="M2525,2364.63l-43-41"/><path class="v" d="M2469,2373.63l9-12,5-19-1-25-13-30-13-23-92,26-19,4-22,9-7,7-27,14-20,4-85-6"/><path class="v" d="M4078,1731.63l8,5,127-1,15-14"/><path class="v" d="M2413,2276.63l-13-35-9-33-9-74-16-59-10-28-18-73-13,2"/><path class="v" d="M2338,1974.63l4-42,22-2"/><path class="v" d="M2465,2021.63l-2-25"/><path class="v" d="M2185,2087.63l-8,4"/><path class="v" d="M2268,2728.63l1-17"/><path class="v" d="M2341,2753.63l1,8,23-3,21,3,5-11h7"/><path class="v" d="M2712,2695.63l-2-20"/><path class="v" d="M2747,2556.63l-1-15"/><path class="v" d="M2819,2553.63l-1-19,17-18"/><path class="v" d="M2672,2558.63v-17"/><path class="v" d="M2923,2636.63l-2-46-41-43-62,1"/><path class="v" d="M2518,2693.63l17-23,11,23"/><path class="v" d="M2573,2692.63l15-23,14,23"/><path class="v" d="M2318,2620.63l58,3,16,7"/><path class="v" d="M2376,2623.63l-3-12v-19l-2-17,20-10-3-24"/><path class="v" d="M2391,2565.63l73-1,4,15,1,24-6,34"/><path class="v" d="M2469,2603.63l14-13"/><path class="v" d="M2483,2590.63l46-52,13-23,3-21-5-26-9-20-25-20-26-14h-21l-22,4-198,59"/><path class="v" d="M2364,2435.63l17,67"/><path class="v" d="M2456,2264.63l15-7,372-119,8-8,12-33,3-21-2-153-2-48,2-19,3-12,9-28,30-40,19-16,27-16,26-9,56-4,174-1,30-2,52-21,21-13,63-47,21-10,18-7,26-6,24-3,382-5,146,2,63-1,15,2,14,6,8,8,5,12,4,38,23,21,9,11,92-2,6,14,10,9,16,22,6,45-8,44,5,45,11,15,12,10,8,9,48,144-5,56,2,21,6,29,15,54-28,93-7,40"/><path class="v" d="M2466,2283.63l17,3,62,1,10,2,40,22-12,20"/><path class="v" d="M4262,1803.63l38-42,15-14,12,3,9-7,132,122,57,44,53,27,48,16"/><path class="v" d="M4300,1706.63l-37-36"/><path class="v" d="M4224,1713.63l66,2"/><path class="v" d="M4310,1696.63l-4-51,1-241"/><path class="v" d="M3724,1618.63l12,39,24,52,27,46,109,91,18,21,10,29,25,22,34,10,44-7,9-8,19-7,174-8,19-11,8-18"/><path class="v" d="M2568,2226.63l-14-40-8-34-5-52-10-48-12-36-9-9,1-36"/><path class="v" d="M2389,2027.63v-30"/><path class="v" d="M2502,1896.63l7-6,14-21,4-77,19-55,9-40,1-29-21-66,8-48"/><path class="v" d="M2175,2029.63l-70,23-201,8"/><path class="v" d="M1379,1085.63l4,28,9,39,26,76-9,33-7,17-38,13-43,17-24,27,8,15,32,36,19,14,40,22,66,44"/><path class="q" d="M2177,2811.63l685-3,134-2,538-2,54-2,504-1,745-4"/><path class="r" d="M2182,786.63h-5v-34h4Z"/><path class="r" d="M5134,1907.63l142-6,2,27,82-4,10,197-44,46-47-45-2-46-161,8,1,28-174,9-11-230,200-9Z"/><path class="r" d="M4109,2283.63l23-1,1,25,9,6,29-1,1,15h9v23h4v26h-4v20l-11,1-22,44-17,15-13,6-4,12-12,1,1-4h-47v14h-47l-1-27,5-10,1-76h18l1,5h19l8-9,22,2,8,6,28,1,2,7,13,1-4-27-9-18-14-10-17-7-19-3-2-39,24,1v-4h16Z"/><path class="r" d="M2923,2683.63l-22,1-3-46,23-1Z"/><path class="r" d="M2925,2761.63h-24v-46h24Z"/><path class="w" d="M4754,1190.63l-277,5-177,1-44,18-44,33-35,45-17,50-2,139-40,64-61,44-63,15-63,2-235-4"/><path class="w" d="M4158,1475.63l72,13"/><path class="w" d="M4398,2799.63l-2-83,2-31,4-21-4-30-12-22-21-9-45,2-23-5-19-10-17-17"/><path class="w" d="M4261,2573.63l-88-90"/><path class="w" d="M4079,2607.63l1-12-103-32-14-11,1-81-6-29-3-45,9-53,11-31,19-25,34-24,35-14,54,3,37,12,23,13,57,75,12,7,14,12-4,43-21,54-10,6-52,8-3,14-10,24-25,13-29,7-28-2-57-10-24-10-19-13-14-12"/><path class="w" d="M4080,2595.63l53-14,22-2,21,3,54-4,19-17,16-27,23-54,28-76,4-25-67-13"/><path class="w" d="M4230,1488.63l4,107-7,14-22,20-41,13-30,5-16,6-4,13,4,15,7,7,22,3,45-5,44-19,32-39,12-52v-69l-8-11-19-7-23-1"/><path class="w" d="M4092,2801.63l1-79-11-31-5-35,2-49"/><path class="w" d="M2177,1941.63l86-27,66-23"/><path class="x" d="M1035,2348.63l16,334"/><path class="x" d="M2087,1244.63h55l52-36-7-227-124-1,7,239,17,25"/><path class="x" d="M1463,2236.63l6,12"/><path class="x" d="M1450,524.63l43,6,41,9,40,22,42,38,27,36,22,51"/><path class="x" d="M1451,567.63l51,9,34,13,31,23,20,21,17,24,18,45,230-86"/><path class="x" d="M1449,434.63l54,6,46,13,52,20,51,34,44,47,35,56,20,44"/><path class="x" d="M1449,388.63l56,7,54,14,60,26,52,32,42,40,33,41,47,90"/><path class="x" d="M942,613.63l25,29,8,20,1,20"/><path class="x" d="M840,904.63l29-23-2-21"/><path class="x" d="M1947,993.63l-8,24-8,12-14,10-17,4h-19"/><path class="x" d="M2116,1951.63l43-5,104-32,42-14"/><path class="x" d="M1984,2263.63l-16,39-17,22-26,18-39,1-29,5"/><path class="x" d="M1327,41.63l7,75-1,70-23,44-5,39,3,63"/><path class="x" d="M1646,2271.63l-7-17-16-29-29-22-33-3-46,1-22,8-19,28-13,28-6,19"/><path class="x" d="M1085,2385.63l12,292"/><path class="x" d="M1450,477.63l56,8,48,15,61,35,42,41,29,42,22,52"/><path class="x" d="M950,2445.63l209-6"/><path class="x" d="M1219,2814.63l12-100,7-40-23-156-13-114-34-91-5-22-1-28,4-32-11-26-41-10h-39l-49-6"/><path class="x" d="M982,2196.63l24,489"/><path class="x" d="M939,2197.63l22,487"/><path class="x" d="M971,1881.63l11,315,44-7"/><path class="x" d="M1306,290.63l-61,8v8l-3,9-6,6-18,6-15-1-7-8-4-9v-11l9-8,9-3,27-3,8,14"/><path class="x" d="M2156,1234.63l-7-253"/><path class="x" d="M1085,2385.63l3-35-22,12-30-1"/><path class="x" d="M1435,331.63l20-70"/><path class="x" d="M2105,980.63l-1-33"/><path class="x" d="M1774,2223.63l36,89,20,22,27,14,4,98"/><path class="x" d="M1119,2358.63l40,81,20,53,15,74,13,73v45l-5,89v40"/><path class="x" d="M1191,1466.63l-39,11-39,21"/><path class="x" d="M1857,2348.63l16,12,64,4,16,5,15,9,13,15"/><path class="x" d="M1615,2174.63l-12,35"/><path class="x" d="M982,2196.63l-43,1-11-314,43-2"/><path class="x" d="M918,1673.63l44-1"/><path class="x" d="M971,1881.63l-17-366-24-17-19,25,17,360"/><path class="x" d="M869,881.63h18"/><path class="x" d="M1920,1655.63l-51,41-35,43-60-13-67,10-52,38-31,52-14,48,4,47,21,54,23,28,35,26"/><path class="x" d="M2137,1409.63l15-1,33,2,12,9,11,13,22,77"/><path class="x" d="M2038,1460.63l21-26,25-12,27,2,29,14"/><path class="x" d="M2113,1275.63l-8-295"/><path class="x" d="M1813,2571.63l47-1"/><path class="x" d="M1653,342.63l-9,44"/><path class="x" d="M1448,346.63l3,269,41,9,33,16,31,26"/><path class="x" d="M1861,2446.63l-65,21,8,76-17,49-37,29-44,13-29,6-23,15-12,5-16,2-29-5-14,9-34,150"/><path class="x" d="M1163,2254.63l-9,2-44,1-13-13-9-22-4-27"/><path class="x" d="M1883,1061.63l36-3,18,3,16,16"/><path class="x" d="M2127,1387.63l-31,12-28,5-19-7-17-22"/><path class="x" d="M1834,1739.63l-32,40-17-4-26-1-35,4-27,13-20,20-14,22-7,25-4,36,3,23,5,21,10,20,16,21,13,13,22,13,27,5,16,1,24-1,44-10,9,36-33,12-24,6-32-2-31-6-28-17-9,48-2,45,2,32,14,14,19,7,27,7,17,15,13,26"/><path class="x" d="M1597,2657.63l12-30,10-13,14-9,12,1,14,5,13,16,5,13"/><path class="x" d="M1692,2637.63l6,22,7,15,10,10,16,8,25,9"/><path class="x" d="M1731,2692.63l10,16,16,32,10,12,10,5h6l7-4,8-8"/><path class="x" d="M1214,2509.63l43-11,20-10,21-18,16-21,8-15,3-44-2-26-10-68"/><path class="x" d="M1920,1655.63l181-15,22-15,29-30,14-31"/><path class="x" d="M892,1264.63l-15-249v-51l-8-17-24-33-5-10-8-19-9-44,1-43,5-38,11-39,32-41,138-131,162-150,90-52,46-15,162-1,118,29,100,47,104,98,57,100,30,103-8,191,12,162,23,147,11,125,6,109-5,61-23,84,25,68,22,149,8,165-14,77-16,50-20,44-39,30-87,53-75,26-67,29-62,12-42,1-73-7-65,2-66,7-60,12-88,31-26,7-31,15-31-8-33-39-19-31-8-49-16-313,2-85,21-75,43-67,30-62,5-24v-107l-30-24-31-4-42,1-42-3-34-13-26-28-6-20-6-60-4-83"/><path class="x" d="M1895,1587.63l-57-54-67-49-56-34-45-45-40-87-54-48-4-3-63-20-47-6"/><path class="x" d="M2634,2839.63l-1,85,5,18,13,29"/><path class="x" d="M2177,1409.63l8,1,12,9,11,13,22,77"/><path class="x" d="M2597,3014.63l30-25,36-26,52-20,42-11,110-6-5-118"/><path class="x" d="M2285,2343.63l27,100"/><path class="x" d="M2445,2406.63l-44,14-136,36-37-155"/><path class="x" d="M2177,1941.63l14,14,40,9"/><path class="x" d="M2471,2768.63v-15l188-7,1-45-4-105,8-11,30-6,157-4"/><path class="x" d="M2420,2253.63l-8-212"/><path class="x" d="M2462,2040.63l10,188-1,10"/><path class="x" d="M2553,2023.63l53,174"/><path class="x" d="M2681,1983.63l53,175"/><path class="x" d="M2725,1971.63l45,147,7,27"/><path class="x" d="M3696,1602.63l-253,1-42,9-45,27-44,34-47,27-37,11-238,2-39,10-35,21-37,37-27,56-4,58"/><path class="x" d="M2327,2329.63l28,103"/><path class="x" d="M2416,2303.63l29,103"/><path class="x" d="M2660,2701.63l-190,1-1-53h-65"/><path class="x" d="M2849,1938.63l-39,9-129,36-135,43-40,11-36,3-58,1-56,6-43,9-42,12-72,30-8,6,2,15,45,139,9,11,25,2,55-15,42-14,8,25"/><path class="x" d="M2374,2316.63l27,104"/><path class="x" d="M2472,2810.63l-1-42"/><path class="x" d="M2662,2809.63l-1-40"/><path class="x" d="M2470,2702.63l1,51-73-3"/><path class="x" d="M2659,2746.63l2,23"/><path class="x" d="M2369,2242.63l-56-186"/><path class="x" d="M2506,2037.63l10,187"/><path class="x" d="M2594,2010.63l55,173"/><path class="x" d="M2638,1996.63l55,174"/><path class="x" d="M2764,1960.63l39,125v11l-19,17-14,5"/><path class="x" d="M2327,2256.63l-56-188"/><path class="x" d="M2285,2267.63l-56-182"/><path class="x" d="M2113,1650.63l17,15,18,24,8,27"/><path class="x" d="M2848,1895.63l2,113-5,79-27,37-41,21-128,38-347,107-74,11-33-23-29-30-22-59-19-112-11-92,7-117,51-224-6-80-18-94-8-32-3-29-10-22-14-112"/><path class="x" d="M2113,1632.63l10-7,29-30,14-31"/><path class="y" d="M2049,2466.63l-8-19-15-14-18-5-17,4-9,11"/><path class="y" d="M1988,697.63l-15-50-8-17-12-9-13-2-16,3"/><path class="y" d="M1964,1249.63l14,51,6,12,8,7,12,3,12-3,11-13"/><path class="y" d="M1906,335.63l9,51,4,14,9,14,7,4,12,3,6-2,10-8,6-9"/><path class="z" d="M2078,3134.63l-5-86-10-237"/><path class="z" d="M1940-729.38l-47,429-9,159,3,183"/><path class="z" d="M-1983,2768.63l492,5,1826,32,354,4,140,4,186,2,187-2,347,3,448-3,66-2h306"/><path class="z" d="M1987,1624.63l10,188,1,166-19,372,3,93"/><path class="z" d="M2063,2811.63l-13-216-2-196,8-256,5-260-8-218-2-43-24-316-81-1265"/><path class="z" d="M1887,41.63l57,907,31,452,12,224"/><path class="z" d="M1982,2443.63l8,232,7,138,17,223,29,586"/><path class="z" d="M1946,41.63l-2-237,13-176,40-358"/><path class="z" d="M2113,2811.63l375-1,508-4,538-2,54-2,504-1,745-4"/><path class="o" d="M2175,2029.63l-62,20"/><path class="v" d="M2105,2052.63l-201,8"/><path class="aa" d="M2799-556.38l10,14,20,302,82,118,4,163"/><path class="aa" d="M783,1014.63l-1562-32,36,462-3,417-1173-7"/><path class="aa" d="M-238,1289.63l504,4,95-3,198-10,203-8,99-6"/><path class="aa" d="M689,2809.63l7,245,25,439"/><path class="aa" d="M104,2801.63l37,757"/><path class="aa" d="M335,2805.63l37,753"/><path class="aa" d="M762,1272.63l25,618,42,923"/><path class="aa" d="M905,2864.63l9,155-6,30,11,221,25,47"/><path class="aa" d="M219,2803.63l-25-617-11-203"/><path class="aa" d="M-1919,338.63l17-1,169-17,82-6,85-2,94,4,148,12h111l109-4,83-12h77l48,7,40,11,151,57,238,80,227,12,468,5"/><path class="aa" d="M-11,2186.63l414-2"/><path class="aa" d="M361,1290.63l29,597,41,919"/><path class="aa" d="M559,1280.63l26,606,44,923"/><path class="aa" d="M528-665.38v422l2,88-2,78-8,42-27,72"/><path class="aa" d="M154,1292.63l20,475"/><path class="aa" d="M-28,26.63l14,208,6,248v78l8,181,21,262,1,94-6,87-12,107"/><path class="aa" d="M-40,1506.63l3-20,41-195"/><path class="aa" d="M209,31.63l19,453,16,228,22,581"/><path class="aa" d="M-551-665.38l60,146,169,425,31,71,32,31,37,17,194,2,521,10,513,8,321-3h560"/><path class="aa" d="M280-729.38l2,205-2,268,5,289"/><path class="aa" d="M-1983,340.63l81-3,169-17,82-6,85-2,94,4,148,12h111l109-4,83-12h77l48,7,40,11,151,57,238,80,227,12,468,5"/><path class="aa" d="M528-729.38v486l2,88-2,78-8,42-27,72"/><path class="aa" d="M905,2864.63l9,155-6,30,11,221,25,47"/><path class="aa" d="M104,2801.63l40,821"/><path class="aa" d="M-28,26.63l14,208,6,248v78l8,181,21,262,1,94-6,87-12,107"/><path class="aa" d="M762,1272.63l25,618,42,923"/><path class="aa" d="M154,1292.63l20,475"/><path class="aa" d="M-40,1506.63l3-20,41-195"/><path class="aa" d="M559,1280.63l26,606,44,923"/><path class="aa" d="M335,2805.63l40,817"/><path class="aa" d="M-11,2186.63l414-2"/><path class="aa" d="M361,1290.63l29,597,41,919"/><path class="aa" d="M689,2809.63l7,245,25,439"/><path class="aa" d="M1584,2815.63v159l-12,75-28,66-105,154-30,62-16,48-10,66,3,79,8,41,20,57"/><path class="aa" d="M219,2803.63l-25-617-11-203"/><path class="aa" d="M-577-729.38l86,210,169,425,31,71,32,31,37,17,194,2,1034,18,321-3H2369"/><path class="aa" d="M3730,2948.63l32,90,22,24,32,15,30,8,148-1,45-5,93-16,37-2,37,6,36,14,32,22,29,25,25,39,30,52,15,42v33l-9,40-19,43-43,114-3,49,2,18"/><path class="aa" d="M3334,2877.63l51,54,23,35,8,28,1,35-6,30-17,30"/><path class="aa" d="M3481,3558.63l-12-244-4-58,1-40,9-76,24-56,19-29,27-31,54-38,61-23,70-15,29-17,20-27,11-33,2-69-33-913"/><path class="aa" d="M3323,2805.63l-1,31,3,23,9,18"/><path class="aa" d="M3334,2877.63l-45,22-34,11-115,3-34-8-10-14-6-18v-67"/><path class="aa" d="M3056,1891.63l34,915"/><path class="aa" d="M3530,1889.63l20,594,3,137-2,37-18,106,1,41"/><path class="aa" d="M3285,1889.63l38,916"/><path class="aa" d="M3175,37.63l-35-564"/><path class="aa" d="M3484-369.38l7,42,34,90,11,47,11,202,3,30"/><path class="aa" d="M4045,3078.63l-4-50,10-19,10-8,67-39,8-2,2-8-25-39-51,30-4,4v6l4,9,17,29"/><path class="aa" d="M2177,3219.63l45-15,40-7,61-1,75,10,146,9,39-3,26-12,18-19,12-16,9-22,6-24-3-25-5-21-10-19-124-131-19-44-6-26,1-43"/><path class="aa" d="M3599,2986.63l23,37,16,21,15,74-12,78-53,29-51,18-18,6-54,7"/><path class="aa" d="M4837,2797.63l276,4,40,4,40,10,38,14,30,17,29,20,122,108,353,321,287,263"/><path class="aa" d="M3833,1887.63l-74,2H3285l-229,2-109-4"/><path class="aa" d="M4695,48.63h116l64-2,33-6,33-12,32-18,26-20,33-41,19-45,9-41-1-43-7-75"/><path class="aa" d="M3599,2986.63l23,37,16,21,15,74-12,78-53,29-51,18-18,6-54,7"/><path class="aa" d="M3730,2948.63l32,90,22,24,32,15,30,8,148-1,45-5,93-16,37-2,37,6,36,14,32,22,29,25,25,39,30,52,15,42v33l-9,40-19,43-43,114-3,49,4,27,7,24,14,30v1"/><path class="aa" d="M3056,1891.63l34,915"/><path class="aa" d="M4721,522.63l115-1,39,7,42,19,40,30,25,35,27,64,10,12,10,8,55,35"/><path class="aa" d="M3323,2805.63l-1,31,3,23,9,18-45,22-34,11-115,3-34-8-10-14-6-18v-67"/><path class="aa" d="M3334,2877.63l51,54,23,35,8,28,1,35-6,30-17,30"/><path class="aa" d="M3481,3622.63l2-12-14-296-4-58,1-40,9-76,24-56,19-29,27-31,54-38,61-23,70-15,29-17,20-27,11-33,2-69-33-913"/><path class="aa" d="M3484-369.38l7,42,34,90,11,47,11,202,3,30"/><path class="aa" d="M4771,1530.63l321,4,55-1,34-7,27-9,36-22"/><path class="aa" d="M2113,3238.63l109-34,40-7,61-1,75,10,146,9,39-3,26-12,18-19,12-16,9-22,6-24-3-25-5-21-10-19-124-131-19-44-6-26,1-43"/><path class="aa" d="M3175,37.63l-35-564"/><path class="aa" d="M3285,1889.63l38,916"/><path class="aa" d="M3530,1889.63l20,594,3,137-2,37-18,106,1,41"/><path class="aa" d="M2113,41.63l802-1,260-3,603,6,917,5"/><path class="aa" d="M4837,2797.63l276,4,40,4,40,10,38,14,30,17,29,20,122,108,353,321,357,327"/><path class="ab" d="M4351,1704.63l-18,19,7,7-18,18-7-7-19,18-17-17,19-19-8-8,20-19,6,6,17-17Z"/><path class="ab" d="M1438,216.63l-33,1-4-103,35-1Z"/><path class="ab" d="M1192,249.63l-23,6-5-18,23-6Z"/><path class="ab" d="M1664,208.63l-23,75-48-14-5,19-45-14,4-18-47-14,22-76Z"/><path class="ab" d="M1179,303.63l-5,2,11,37-24,7-14-54,27-8Z"/><path class="ab" d="M2182,786.63l-150,1-1-33,150-2Z"/><path class="ab" d="M2169,850.63l9-7,23,22-18,19,18,18-21,24-9-12-18,22-26-23,21-20-3-19-18-16,23-23Z"/><path class="ab" d="M2526,1548.63l10-1,2,20-12,1v8l-50,3v-7l-14,1v-6h-11l-1-16,13-1-1-18,62-3Z"/><path class="ab" d="M1583,712.63l-67,44,62,102,102-65,18,30-147,93-18-29,17-12-107-171,28-18,26,42,66-42Z"/><path class="ab" d="M1729,919.63l-1,26-14,1-5,85,73-1,2-12,26,1,1,39-15,1v6l-95-1-1,12h-21l1-16-30-1v-30h26l6-114Z"/><path class="ab" d="M1071,1142.63l-139,5-9-240,138-5Z"/><path class="ab" d="M1644,1102.63l-70,137-28-12,9-18-101-46,5-11-41-20,14-29,41,20-4,8,102,47,43-92Z"/><path class="ab" d="M1338,1066.63l12-4,44,147-13,4,10,34-166,53-14-52-24,7-6-121,14-4-9-32,149-43Z"/><path class="ab" d="M1830,1207.63l-52,49-35,46-65-55,5-10-7-6,23-22-18-15,32-33,10,10,18-19,12,6,17-14Z"/><path class="ab" d="M1181,1147.63l6,108,24-7,14,52-28,15-166,5-17-26,31-14-22-13-6-98,7-4-7-21,122-6Z"/><path class="ab" d="M1192,1409.63l-157,7-4-96,157-6Z"/><path class="ab" d="M1523,1293.63l-46,112-6-2-13,35-30-12,8-21-87-43,8-16-12-8,14-24,23,11-5,12,77,41,32-78-13-4,8-18Z"/><path class="ab" d="M1879,1314.63l-84,56,65,96-30,15-63-89-20,8-19-24,132-90Z"/><path class="ab" d="M1334,1412.63l-20,51,35,25,37-50,27,17-32,46,77,80,50-25,16,32-75,33-39-43-13,8-26-27,9-8-36-40-9,10-61-48,28-73Z"/><path class="ab" d="M1737,1491.63l-18,24-9-6-13,19-3-2-24,33,15,10-8,10,31,22-2,3,24,18,11-15,22,16-18,25-12-8-9,12-31-22-3,4-51-37-10,15-28-21,64-88,4,3,20-27,7,4,10-14Z"/><path class="ab" d="M1083,1602.63h-15l3,61-13,1,1,13-47,2-4-84,14-1-3-56,17-1v-12l43-2Z"/><path class="ab" d="M1249,1545.63l11,6,12,12,5,23-3,26,9,8,5,99-17,17-35-19,9-10-5-20,3-47,8-12-15-5-10,2-14-6-10-13-4-12-2-19,11-19,13-10,14-4Z"/><path class="ab" d="M1647,1675.63l1,53h-5l2,11-10,12h-17l-6-6-10,1,2,26h-4l1,19-81,2-2-11-30,2-1-22-7,1v-33h12l-2-40,41-1v-11l31-1,2,12,11-1,3,18,24-2v-30Z"/><path class="ab" d="M1236,1717.63l73,41,5,18-7,7-40,23-2,13-16,11-12-3-11,6-33-5-10-19-10-6-3-59,53-32Z"/><path class="ab" d="M1159,1756.63l11-6,3,53h-8l-60,37-37-21v-44l56-35Z"/><path class="ab" d="M1565,1804.63l11-1,3,73h3l2,44-61,3-1-46h8l-3-71,9-1-1-12,29-1Z"/><path class="ab" d="M1759,1818.63l11-3,72,17-5-19,33-10,1,5,12-3,16,46-13,3,2,6h7l8,28-7,24-6,6,10,3-9,46-12-2-2,9-32-10v-19l-80,22-7,21-58-13,10-47-10-16v-31l5-26-11-40,57-18Z"/><path class="ab" d="M2305,2021.63l-116,44-22-57,138-43Z"/><path class="ab" d="M1426,2049.63l-63,3,2,51,43-2,2,49-67,3-1-17-27,2-6-130,115-5Z"/><path class="ab" d="M1533,1996.63l24-1,4,88,10-1v5l35-1v3l22-1,2,37-58,3v4l-38,2,2,50-32,2-2-51-49,2v8l-43,2-3-77h20l-3-67h15v-17l93-4Z"/><path class="ab" d="M1190,2082.63h28v26h46v93l-70-1v-49H1085v-45h34l1-183h71Z"/><path class="ab" d="M1361,2195.63l14,39-18,36-41,11-35-19-11-39,18-36,40-12Z"/><path class="ab" d="M1366,2361.63l-7,2,2,23,36,27-10,10-12-10-7,6v6h-35v-17h7v-22h3v-21h8l-1-34h15Z"/><path class="ab" d="M1795,2425.63v32l-33,10v10h3l1,25h-14v25l8,1v41h-32l-1,18-31,10-44-14v-22l-19,1,9,19-20,11-3-5-19,12-6-6-9,4,4,15-43,26-24-36,73-42h-38l-5-15,5-14,50-4v-18l-29-16,28-57,8,4,9-19,95,55,3-5-13-22-1-34,72-20m-150,115v19h30l36-8,15,4,1-15-63-35Z"/><path class="ab" d="M1818,2679.63h6l3,3v52l-9-1-2,2,5,7-13,13-19-19,2-2-5-6,13-11-1-22-12-12,19-18Z"/><path class="ab" d="M2505,1927.63l129-3,5,43-128,4-3,24-143,2-2-96,139-5Z"/><path class="ab" d="M2336,2009.63l-147,56-12-30v-30l142-45Z"/><path class="ab" d="M2637,2371.63l-22,32-93-70,26-28Z"/><path class="ab" d="M2881,2511.63l-24,26-40-38,24-25Z"/><path class="ab" d="M2477,2509.63l-84,30-12-37,82-30Z"/><path class="ab" d="M2779,2540.63l-59,1-1-35,59-1Z"/><path class="ab" d="M2704,2539.63l-55,3-2-32,55-4Z"/><path class="ab" d="M2393,2539.63l-85,27-12-37,85-27Z"/><path class="ab" d="M2618,2668.63l-109,2v-38l109-2Z"/><path class="ab" d="M2391,2674.63l-55,1-1-40,56-1Z"/><path class="ab" d="M2732,2675.63l-51,2-2-36,50-3Z"/><path class="ab" d="M2311,2696.63l-38,1-1-51h38Z"/><path class="ab" d="M2436,2732.63l-38,1-1-54h39Z"/><path class="ab" d="M2736,2750.63l-52,2-1-39,51-2Z"/><path class="ab" d="M2375,2752.63l-54,2-2-41,54-2Z"/><path class="ab" d="M2301,2765.63l-51,1-1-37,52-1Z"/><text class="ac" transform="translate(1178 1777.82)"><tspan class="ad">S</tspan><tspan class="ae" x="10.29" y="0">c</tspan><tspan x="18.96" y="0">ien</tspan><tspan class="af" x="41.33" y="0">c</tspan><tspan x="49.95" y="0">e </tspan><tspan class="ag" x="63.04" y="0">B</tspan><tspan x="73.82" y="0">uilding</tspan></text><text class="ac" transform="translate(1213 1652.62)"><tspan class="ah">N</tspan><tspan x="12.47" y="0">o</tspan><tspan class="ai" x="21.75" y="0">r</tspan><tspan class="aj" x="28.14" y="0">t</tspan><tspan x="33.45" y="0">h </tspan><tspan class="ak" x="47.27" y="0">H</tspan><tspan x="59.35" y="0">all</tspan></text><text class="ac" transform="translate(1069 1797.62)">D<tspan class="al" x="12.16" y="0">e</tspan><tspan class="am" x="20.67" y="0">V</tspan><tspan class="ag" x="30.65" y="0">r</tspan><tspan class="an" x="36.47" y="0">i</tspan><tspan class="ao" x="40.47" y="0">e</tspan><tspan x="49.43" y="0">s </tspan><tspan class="ap" x="61.68" y="0">H</tspan><tspan x="73.76" y="0">all</tspan></text><text class="ac" transform="translate(997.82 1595.12)"><tspan class="ag">E</tspan><tspan x="9.95" y="0">ngin</tspan><tspan class="aq" x="42.61" y="0">e</tspan><tspan x="51.54" y="0">e</tspan><tspan class="ag" x="60.36" y="0">r</tspan><tspan class="an" x="66.18" y="0">ing</tspan><tspan class="ag" x="14.19" y="20.24">B</tspan><tspan x="24.97" y="20.24">uilding</tspan></text><text class="ac" transform="translate(1323.73 1530.62)"><tspan class="ar">B</tspan><tspan x="10.95" y="0">o</tspan><tspan class="as" x="20.23" y="0">l</tspan><tspan class="at" x="24.29" y="0">t</tspan><tspan class="au" x="29.54" y="0">-</tspan><tspan class="av" x="35.75" y="0">H</tspan><tspan class="an" x="47.94" y="0">ye</tspan><tspan class="ah" x="64.88" y="0">n</tspan><tspan class="aj" x="74.35" y="0">s</tspan><tspan class="aw" x="82.26" y="0">-</tspan><tspan x="87.44" y="0">Timmer</tspan></text><text class="ac" transform="translate(1368.71 1371.12)">R<tspan class="ax" x="10.83" y="0">o</tspan><tspan x="20.21" y="0">o</tspan><tspan class="ay" x="29.49" y="0">k</tspan><tspan class="aj" x="38.24" y="0">s</tspan><tspan class="az" x="46.16" y="0">-</tspan><tspan class="ba" x="51.86" y="0">V</tspan><tspan x="61.61" y="0">a</tspan><tspan class="bb" x="70.53" y="0">n</tspan><tspan class="bc" x="79.88" y="0">D</tspan><tspan class="ar" x="92.04" y="0">e</tspan><tspan class="an" x="100.92" y="0">llen</tspan></text><text class="ac" transform="translate(1055.39 1363.99)"><tspan class="bd">V</tspan><tspan x="9.87" y="0">ene</tspan><tspan class="be" x="37.06" y="0">m</tspan><tspan x="51.23" y="0">a Aqu</tspan><tspan class="ag" x="94.57" y="0">a</tspan><tspan class="aj" x="103.38" y="0">t</tspan><tspan x="108.69" y="0">ic</tspan><tspan x="35.68" y="20.24">Ce</tspan><tspan class="be" x="56.08" y="20.24">n</tspan><tspan class="ag" x="65.52" y="20.24">t</tspan><tspan x="70.79" y="20.24">er</tspan></text><text class="ac" transform="translate(1226.27 1189.91)"><tspan class="bf">V</tspan><tspan x="9.75" y="0">an </tspan><tspan class="bg" x="32.49" y="0">N</tspan><tspan class="ax" x="44.96" y="0">o</tspan><tspan x="54.34" y="0">o</tspan><tspan class="at" x="63.62" y="0">r</tspan><tspan class="an" x="69.42" y="0">d A</tspan><tspan class="at" x="94.46" y="0">r</tspan><tspan class="bc" x="100.26" y="0">e</tspan><tspan class="bh" x="109.08" y="0">n</tspan><tspan x="118.53" y="0">a</tspan></text><text class="ac" transform="translate(1032.34 1239.63)"><tspan class="bi">S</tspan><tspan class="bj" x="10.04" y="0">po</tspan><tspan class="ar" x="29.13" y="0">e</tspan><tspan x="38.01" y="0">lh</tspan><tspan class="bj" x="51.56" y="0">o</tspan><tspan class="an" x="60.93" y="0">f Fi</tspan><tspan class="ar" x="83.49" y="0">e</tspan><tspan class="an" x="92.36" y="0">ldho</tspan><tspan class="ag" x="124.82" y="0">u</tspan><tspan class="ar" x="134.1" y="0">s</tspan><tspan x="142.13" y="0">e</tspan><tspan x="42.85" y="20.24">Compl</tspan><tspan class="ar" x="91.59" y="20.24">e</tspan><tspan x="100.46" y="20.24">x</tspan></text><text class="ac" transform="translate(931.8 1035.8)"><tspan class="bk">H</tspan><tspan x="12.01" y="0">u</tspan><tspan class="ax" x="21.41" y="0">i</tspan><tspan class="be" x="25.51" y="0">z</tspan><tspan x="33.02" y="0">en</tspan><tspan class="bl" x="51.39" y="0">g</tspan><tspan x="60.8" y="0">a </tspan><tspan class="bm" x="73.99" y="0">T</tspan><tspan x="81.72" y="0">enn</tspan><tspan class="ah" x="109.64" y="0">i</tspan><tspan x="113.55" y="0">s</tspan><tspan x="24.71" y="20.24">and </tspan><tspan class="bn" x="57.09" y="20.24">T</tspan><tspan class="bo" x="65.19" y="20.24">r</tspan><tspan x="70.84" y="20.24">ack</tspan></text><text class="ac" transform="translate(1514.94 1736.62)">Commo<tspan class="ah" x="58.67" y="0">n</tspan><tspan x="68.14" y="0">s</tspan><tspan class="ad" x="-3.02" y="20.24">D</tspan><tspan x="9.21" y="20.24">ining </tspan><tspan class="ap" x="50.14" y="20.24">H</tspan><tspan x="62.22" y="20.24">all</tspan></text><text class="ac" transform="translate(1514.94 1847.63)">Commo<tspan class="ah" x="58.67" y="0">n</tspan><tspan x="68.14" y="0">s</tspan><tspan x="14.69" y="20.24">Ann</tspan><tspan class="ar" x="44.92" y="20.24">e</tspan><tspan x="53.79" y="20.24">x</tspan></text><text class="ac" transform="translate(1744.7 1883.62)">Co<tspan class="aj" x="20.85" y="0">v</tspan><tspan class="bc" x="28.95" y="0">e</tspan><tspan class="bh" x="37.77" y="0">n</tspan><tspan x="47.22" y="0">a</tspan><tspan class="be" x="56.14" y="0">n</tspan><tspan x="65.59" y="0">t F</tspan><tspan class="bi" x="84.76" y="0">I</tspan><tspan x="89.23" y="0">ne</tspan><tspan x="11.22" y="20.24">A</tspan><tspan class="ai" x="22.35" y="20.24">r</tspan><tspan class="ao" x="28.75" y="20.24">t</tspan><tspan x="34.26" y="20.24">s Ce</tspan><tspan class="bh" x="66.91" y="20.24">n</tspan><tspan class="av" x="76.35" y="20.24">t</tspan><tspan x="81.62" y="20.24">er</tspan></text><text class="ac" transform="translate(1426.52 2069.62)"><tspan class="bg">H</tspan><tspan class="ar" x="12.23" y="0">e</tspan><tspan class="ah" x="21.1" y="0">k</tspan><tspan class="bp" x="29.54" y="0">m</tspan><tspan x="43.71" y="0">an </tspan><tspan class="bq" x="66.45" y="0">L</tspan><tspan class="an" x="76.19" y="0">ib</tspan><tspan class="bo" x="89.82" y="0">r</tspan><tspan x="95.47" y="0">a</tspan><tspan class="br" x="104.39" y="0">r</tspan><tspan x="110.84" y="0">y</tspan></text><text class="ac" transform="translate(1290.76 2242.62)"><tspan class="bs">C</tspan><tspan class="be" x="11.52" y="0">h</tspan><tspan x="20.97" y="0">a</tspan><tspan class="bj" x="29.89" y="0">p</tspan><tspan class="ar" x="39.61" y="0">e</tspan><tspan x="48.48" y="0">l</tspan></text><text class="ac" transform="translate(1295.01 2077.62)"><tspan class="bt">H</tspan><tspan class="an" x="12.18" y="0">iemen</tspan><tspan class="bl" x="57.65" y="0">g</tspan><tspan x="67.06" y="0">a</tspan><tspan class="ap" x="23.49" y="20.24">H</tspan><tspan x="35.57" y="20.24">all</tspan></text><text class="ac" transform="translate(1122.08 2077.63)"><tspan class="bi">S</tspan><tspan class="bj" x="10.04" y="0">po</tspan><tspan class="ar" x="29.13" y="0">e</tspan><tspan x="38.01" y="0">lh</tspan><tspan class="bj" x="51.56" y="0">o</tspan><tspan class="an" x="60.93" y="0">f</tspan></text><text class="ac" transform="translate(1578.36 1578.62)"><tspan class="ad">S</tspan><tspan class="an" x="10.29" y="0">c</tspan><tspan class="ah" x="18.83" y="0">h</tspan><tspan x="28.29" y="0">u</tspan><tspan class="as" x="37.69" y="0">l</tspan><tspan class="bu" x="41.75" y="0">t</tspan><tspan class="be" x="47.52" y="0">z</tspan><tspan class="bv" x="55.03" y="0">e</tspan><tspan class="bw" x="64.19" y="0">-E</tspan><tspan x="80.3" y="0">lders</tspan><tspan class="aj" x="116.67" y="0">v</tspan><tspan class="ar" x="124.77" y="0">e</tspan><tspan x="133.65" y="0">ld</tspan></text><text class="ac" transform="translate(1730.64 1371.12)"><tspan class="ar">B</tspan><tspan class="bj" x="10.95" y="0">e</tspan><tspan class="af" x="19.87" y="0">e</tspan><tspan class="ao" x="28.78" y="0">t</tspan><tspan class="aj" x="34.3" y="0">s</tspan><tspan class="az" x="42.21" y="0">-</tspan><tspan class="bd" x="47.91" y="0">V</tspan><tspan class="bj" x="57.78" y="0">e</tspan><tspan x="66.7" y="0">e</tspan><tspan class="ah" x="75.53" y="0">n</tspan><tspan class="aj" x="84.99" y="0">s</tspan><tspan class="at" x="92.9" y="0">t</tspan><tspan class="bo" x="98.15" y="0">r</tspan><tspan x="103.8" y="0">a</tspan></text><text class="ac" transform="translate(1707.84 1223.62)"><tspan class="bx">K</tspan><tspan x="10.9" y="0">nollc</tspan><tspan class="at" x="46.26" y="0">r</tspan><tspan class="ao" x="52.06" y="0">e</tspan><tspan class="aj" x="61.02" y="0">s</tspan><tspan x="68.93" y="0">t</tspan><tspan class="ad" x="-3.92" y="20.24">D</tspan><tspan x="8.31" y="20.24">ining </tspan><tspan class="ap" x="49.23" y="20.24">H</tspan><tspan x="61.31" y="20.24">all</tspan></text><text class="ac" transform="translate(1446.62 1178.13)"><tspan class="ah">N</tspan><tspan class="bj" x="12.47" y="0">o</tspan><tspan class="an" x="21.85" y="0">o</tspan><tspan class="at" x="31.13" y="0">r</tspan><tspan x="36.93" y="0">d</tspan><tspan class="ar" x="46.56" y="0">e</tspan><tspan class="bs" x="55.44" y="0">w</tspan><tspan class="an" x="68.32" y="0">ie</tspan><tspan class="by" x="81.15" y="0">r</tspan><tspan class="az" x="86.86" y="0">-</tspan><tspan class="bf" x="92.57" y="0">V</tspan><tspan x="102.32" y="0">ande</tspan><tspan class="bz" x="139.25" y="0">r</tspan><tspan class="ca" x="145.51" y="0">W</tspan><tspan x="160.55" y="0">e</tspan><tspan class="bw" x="169.38" y="0">r</tspan><tspan x="175.15" y="0">p</tspan></text><text class="ac" transform="translate(1671.99 1043.62)"><tspan class="ar">B</tspan><tspan class="bj" x="10.95" y="0">o</tspan><tspan x="20.33" y="0">e</tspan><tspan class="by" x="29.15" y="0">r</tspan><tspan class="au" x="34.87" y="0">-</tspan><tspan class="cb" x="41.08" y="0">B</tspan><tspan x="52.03" y="0">ennink</tspan></text><text class="ac" transform="translate(1483.76 824.17)"><tspan class="cc">K</tspan><tspan x="11.17" y="0">a</tspan><tspan class="ah" x="20.09" y="0">l</tspan><tspan class="ag" x="24.01" y="0">s</tspan><tspan class="bj" x="31.87" y="0">be</tspan><tspan class="ar" x="50.53" y="0">e</tspan><tspan class="cd" x="59.4" y="0">k</tspan><tspan class="bw" x="67.28" y="0">-</tspan><tspan class="bk" x="73.49" y="0">H</tspan><tspan x="85.5" y="0">u</tspan><tspan class="ax" x="94.9" y="0">i</tspan><tspan x="98.99" y="0">zin</tspan><tspan class="bl" x="120.15" y="0">g</tspan><tspan x="129.56" y="0">a</tspan><tspan class="bb" x="32.91" y="20.24">v</tspan><tspan x="40.87" y="20.24">a</tspan><tspan class="bb" x="49.79" y="20.24">n</tspan><tspan x="59.14" y="20.24">R</tspan><tspan class="ar" x="69.97" y="20.24">e</tspan><tspan class="bl" x="78.84" y="20.24">k</tspan><tspan x="87.21" y="20.24">en</tspan></text><text class="ac" transform="translate(1368.55 175.72)"><tspan class="ce">M</tspan><tspan x="14.37" y="0">ail </tspan><tspan class="ad" x="35.56" y="0">S</tspan><tspan x="45.85" y="0">e</tspan><tspan class="br" x="54.68" y="0">r</tspan><tspan class="ar" x="61.12" y="0">v</tspan><tspan class="an" x="69.34" y="0">i</tspan><tspan class="cf" x="73.33" y="0">c</tspan><tspan class="ao" x="81.96" y="0">e</tspan><tspan x="90.91" y="0">s</tspan><tspan class="bs" x="-6.78" y="20.24">C</tspan><tspan x="4.74" y="20.24">amp</tspan><tspan class="ag" x="37.55" y="20.24">u</tspan><tspan x="46.83" y="20.24">s S</tspan><tspan class="ah" x="69.3" y="20.24">a</tspan><tspan class="bs" x="78.14" y="20.24">f</tspan><tspan class="af" x="82.87" y="20.24">e</tspan><tspan class="cg" x="91.77" y="20.24">t</tspan><tspan x="97.56" y="20.24">y</tspan></text><text class="ac" transform="translate(1590.48 2526.13)"><tspan class="bs">C</tspan><tspan x="11.52" y="0">a</tspan><tspan class="ad" x="20.45" y="0">l</tspan><tspan class="cb" x="24.51" y="0">v</tspan><tspan x="32.73" y="0">in </tspan><tspan class="aj" x="50.54" y="0">T</tspan><tspan x="59.89" y="0">h</tspan><tspan class="bj" x="69.44" y="0">e</tspan><tspan x="78.36" y="0">ol</tspan><tspan class="bj" x="91.64" y="0">o</tspan><tspan x="101.02" y="0">gical</tspan><tspan class="ad" x="32.86" y="20.24">S</tspan><tspan x="43.15" y="20.24">emi</tspan><tspan class="be" x="70.25" y="20.24">n</tspan><tspan x="79.69" y="20.24">a</tspan><tspan class="br" x="88.62" y="20.24">r</tspan><tspan x="95.06" y="20.24">y</tspan></text><text class="ac" transform="translate(2224.04 2014.63)">D<tspan class="al" x="12.16" y="0">e</tspan><tspan class="bd" x="20.67" y="0">V</tspan><tspan class="ae" x="30.54" y="0">o</tspan><tspan x="39.95" y="0">s</tspan></text><text class="ac" transform="translate(2395.96 1954.13)"><tspan class="ch">P</tspan><tspan class="ag" x="10.29" y="0">r</tspan><tspan x="16.11" y="0">in</tspan><tspan class="af" x="29.66" y="0">c</tspan><tspan x="38.28" y="0">e Con</tspan><tspan class="bs" x="81.77" y="0">f</tspan><tspan x="86.49" y="0">e</tspan><tspan class="at" x="95.32" y="0">r</tspan><tspan x="101.12" y="0">en</tspan><tspan class="cf" x="119.49" y="0">c</tspan><tspan x="128.11" y="0">e Ce</tspan><tspan class="be" x="161.6" y="0">n</tspan><tspan class="ag" x="171.05" y="0">t</tspan><tspan class="bc" x="176.31" y="0">er</tspan></text><text class="ac" transform="translate(2423.24 1553.62)"><tspan class="av">B</tspan><tspan x="10.78" y="0">un</tspan><tspan class="bl" x="29.73" y="0">k</tspan><tspan x="38.09" y="0">er </tspan><tspan class="bi" x="57.12" y="0">I</tspan><tspan class="be" x="61.59" y="0">n</tspan><tspan class="ag" x="71.04" y="0">t</tspan><tspan class="bc" x="76.3" y="0">e</tspan><tspan class="ci" x="85.13" y="0">r</tspan><tspan x="90.9" y="0">p</tspan><tspan class="at" x="100.51" y="0">r</tspan><tspan class="af" x="106.32" y="0">e</tspan><tspan class="aj" x="115.22" y="0">t</tspan><tspan class="as" x="120.54" y="0">i</tspan><tspan class="aj" x="124.6" y="0">v</tspan><tspan x="132.7" y="0">e</tspan><tspan x="45.83" y="20.24">Ce</tspan><tspan class="be" x="66.22" y="20.24">n</tspan><tspan class="ag" x="75.67" y="20.24">t</tspan><tspan x="80.93" y="20.24">er</tspan></text><text class="cj" transform="translate(2544.65 732.6)"><tspan class="ah">N</tspan><tspan x="12.47" y="0">o</tspan><tspan class="ai" x="21.75" y="0">r</tspan><tspan class="aj" x="28.14" y="0">t</tspan><tspan x="33.45" y="0">h </tspan><tspan class="ck" x="47.27" y="0">P</tspan><tspan x="57.44" y="0">ond</tspan></text><text class="cl" transform="translate(2366.33 1166.98)"><tspan class="bs">C</tspan><tspan x="11.52" y="0">a</tspan><tspan class="ad" x="20.45" y="0">l</tspan><tspan class="cb" x="24.51" y="0">v</tspan><tspan x="32.73" y="0">in E</tspan><tspan class="cf" x="60.61" y="0">c</tspan><tspan class="ao" x="69.23" y="0">o</tspan><tspan class="cf" x="78.65" y="0">s</tspan><tspan class="ao" x="86.71" y="0">y</tspan><tspan class="aj" x="94.96" y="0">s</tspan><tspan class="ag" x="102.87" y="0">t</tspan><tspan x="108.14" y="0">em </tspan><tspan class="ck" x="135.5" y="0">P</tspan><tspan class="bc" x="145.67" y="0">er</tspan><tspan class="ar" x="160.43" y="0">s</tspan><tspan x="168.46" y="0">e</tspan><tspan class="br" x="177.29" y="0">r</tspan><tspan class="aj" x="183.73" y="0">v</tspan><tspan x="191.83" y="0">e and</tspan><tspan class="ak" x="59.19" y="20.24">N</tspan><tspan class="av" x="71.5" y="20.24">a</tspan><tspan class="aj" x="80.31" y="20.24">t</tspan><tspan class="as" x="85.62" y="20.24">i</tspan><tspan class="aj" x="89.69" y="20.24">v</tspan><tspan x="97.79" y="20.24">e </tspan><tspan class="cm" x="110.88" y="20.24">G</tspan><tspan x="123.21" y="20.24">a</tspan><tspan class="cn" x="132.13" y="20.24">r</tspan><tspan x="137.94" y="20.24">de</tspan><tspan class="ah" x="156.39" y="20.24">n</tspan><tspan x="165.86" y="20.24">s</tspan></text><text class="cj" transform="translate(2260.97 1371.12)"><tspan class="bb">W</tspan><tspan x="15.59" y="0">h</tspan><tspan class="ah" x="25.14" y="0">i</tspan><tspan class="ag" x="29.05" y="0">s</tspan><tspan class="bl" x="36.91" y="0">k</tspan><tspan class="co" x="45.28" y="0">e</tspan><tspan x="54.31" y="0">y </tspan><tspan class="ck" x="66.69" y="0">P</tspan><tspan x="76.86" y="0">ond</tspan></text><text class="cj" transform="translate(2458.54 1471.63)"><tspan class="ad">S</tspan><tspan class="an" x="10.29" y="0">o</tspan><tspan class="cp" x="19.57" y="0">u</tspan><tspan class="aj" x="29.15" y="0">t</tspan><tspan x="34.47" y="0">h </tspan><tspan class="cq" x="48.28" y="0">P</tspan><tspan class="an" x="58.45" y="0">ond</tspan></text><text class="cl" transform="translate(1399.05 1035.8)"><tspan class="bi">S</tspan><tspan class="ag" x="10.04" y="0">r</tspan><tspan x="15.86" y="0">i</tspan><tspan class="cr" x="19.86" y="0">k</tspan><tspan class="bw" x="27.99" y="0">w</tspan><tspan x="40.76" y="0">e</tspan><tspan class="at" x="49.58" y="0">r</tspan><tspan class="be" x="55.39" y="0">d</tspan><tspan x="64.92" y="0">a </tspan><tspan class="bm" x="78.11" y="0">T</tspan><tspan x="85.84" y="0">enn</tspan><tspan class="ah" x="113.76" y="0">i</tspan><tspan x="117.67" y="0">s Ce</tspan><tspan class="be" x="150.31" y="0">n</tspan><tspan class="ag" x="159.76" y="0">t</tspan><tspan x="165.02" y="0">er</tspan></text><text class="cl" transform="translate(1264.7 761.5)"><tspan class="cs">Z</tspan><tspan x="9.8" y="0">uide</tspan><tspan class="be" x="41.65" y="0">m</tspan><tspan x="55.82" y="0">a</tspan><tspan class="ad" x="-13.61" y="20.24">S</tspan><tspan class="ax" x="-3.31" y="20.24">o</tspan><tspan class="cf" x="6.06" y="20.24">cc</tspan><tspan x="23.31" y="20.24">er Fi</tspan><tspan class="ar" x="55.85" y="20.24">e</tspan><tspan class="an" x="64.72" y="20.24">ld</tspan></text><text class="cl" transform="translate(1268.28 461.07)"><tspan class="ah">N</tspan><tspan x="12.47" y="0">o</tspan><tspan class="ai" x="21.75" y="0">r</tspan><tspan class="aj" x="28.14" y="0">t</tspan><tspan x="33.45" y="0">h Fi</tspan><tspan class="ar" x="60.78" y="0">e</tspan><tspan class="an" x="69.66" y="0">ld</tspan></text><text class="cl" transform="translate(560.71 753.38)">B<tspan class="av" x="10.9" y="0">a</tspan><tspan class="ar" x="19.7" y="0">se</tspan><tspan class="an" x="36.61" y="0">ball </tspan><tspan class="ct" x="67.43" y="0">D</tspan><tspan class="bh" x="79.66" y="0">i</tspan><tspan x="83.56" y="0">amond</tspan></text></svg>